<svg width="49" height="56" viewBox="0 0 49 56" fill="none" xmlns="http://www.w3.org/2000/svg">
<path d="M23.961 0L22.2682 1.6928L22.2031 25.7826H25.9143V1.6928L23.961 0Z" fill="black"/>
<path d="M29.9509 25.7826V5.53415L33.5319 8.72443V25.7826H29.9509Z" fill="black"/>
<path d="M10.4172 17.706V12.3672L0 22.2636V55.4033H17.7744L14.5841 51.6271H3.77624V23.761L10.4172 17.706Z" fill="black"/>
<path d="M37.6961 17.706V12.3672L48.1133 22.2636V55.4033H30.3389L33.5292 51.6271H44.337V23.761L37.6961 17.706Z" fill="black"/>
<path d="M10.4182 21.6797L6.96745 25.0002L6.90234 48.1785H10.4182V21.6797Z" fill="black"/>
<path d="M37.3709 21.7422L40.8216 25.0627L40.8867 48.241H37.3709V21.7422Z" fill="black"/>
<path d="M14.4531 25.5219V9.04968L18.1643 5.27344V25.5219H14.4531Z" fill="black"/>
<path d="M11.7686 30.466L11.7266 27.6016H22.4693L22.5091 30.3082L18.2777 30.3704V46.7442L22.4693 50.9111V55.078L15.2196 47.6566L15.2292 30.3687L11.7686 30.466Z" fill="#25BAD3" stroke="#2BBCD4" stroke-width="0.390646" stroke-linecap="round"/>
<path d="M23.9609 54.9494V27.5391H26.7606V35.8728H32.6203V27.5391H35.6803V43.8811L32.6203 48.1131V38.7376H26.7606V52.0846L23.9609 54.9494Z" fill="#25BAD3" stroke="#2BBCD4" stroke-width="0.390646" stroke-linecap="round"/>
</svg>
