<svg width="252" height="56" viewBox="0 0 252 56" fill="none" xmlns="http://www.w3.org/2000/svg">
<g clip-path="url(#clip0_29994_5126)">
<path d="M63.993 26.0492H65.1177L66.3615 29.3174L67.6185 26.0492H68.7432L67.1157 30.1377L68.7299 34.0145L71.9055 25.9963H73.2022L69.2724 35.3906H68.2404L66.3747 30.9581L64.4958 35.3906H63.4638L59.5473 25.9963H60.8307L64.0195 34.0145L65.6205 30.1377L63.993 26.0492ZM80.8083 34.3321V35.3906H74.4307V25.9963H80.6892V27.0548H75.6216V30.098H80.0277V31.0904H75.6216V34.3321H80.8083ZM93.0386 32.9693C93.0386 33.3309 92.9636 33.6617 92.8136 33.9616C92.6725 34.2615 92.474 34.5173 92.2182 34.729C91.9712 34.9408 91.6801 35.1039 91.3449 35.2186C91.0186 35.3333 90.6657 35.3906 90.2864 35.3906H85.8274V25.9963H90.4981C90.8245 25.9963 91.12 26.0668 91.3846 26.208C91.6493 26.3491 91.8742 26.5343 92.0594 26.7637C92.2447 26.9842 92.3858 27.24 92.4828 27.5311C92.5887 27.8134 92.6416 28.1001 92.6416 28.3912C92.6416 28.8587 92.5225 29.2909 92.2844 29.6878C92.055 30.0848 91.7242 30.3803 91.292 30.5744C91.8301 30.7331 92.2535 31.0286 92.5622 31.4609C92.8798 31.8843 93.0386 32.3871 93.0386 32.9693ZM91.8345 32.7576C91.8345 32.5459 91.7948 32.343 91.7154 32.1489C91.6449 31.946 91.5434 31.7696 91.4111 31.6196C91.2876 31.4697 91.1376 31.3506 90.9612 31.2624C90.7848 31.1742 90.5907 31.1301 90.379 31.1301H87.0182V34.3586H90.2864C90.5069 34.3586 90.7098 34.3145 90.8951 34.2263C91.0803 34.138 91.2435 34.0234 91.3846 33.8822C91.5258 33.7323 91.636 33.5603 91.7154 33.3662C91.7948 33.1721 91.8345 32.9693 91.8345 32.7576ZM87.0182 27.0283V30.1642H90.0086C90.2203 30.1642 90.4143 30.1245 90.5907 30.0451C90.7672 29.9569 90.9171 29.8422 91.0406 29.7011C91.1729 29.5599 91.2744 29.3968 91.3449 29.2115C91.4243 29.0175 91.464 28.8146 91.464 28.6029C91.464 28.3823 91.4287 28.175 91.3582 27.981C91.2876 27.7869 91.1906 27.6193 91.0671 27.4782C90.9524 27.337 90.8069 27.2268 90.6304 27.1474C90.4628 27.068 90.282 27.0283 90.0879 27.0283H87.0182ZM98.5677 34.385C99.1146 34.385 99.5689 34.2792 99.9305 34.0675C100.292 33.8558 100.579 33.5823 100.791 33.2471C101.011 32.9031 101.165 32.515 101.254 32.0827C101.342 31.6417 101.386 31.1962 101.386 30.7464V25.9963H102.577V30.7464C102.577 31.3815 102.502 31.9857 102.352 32.5591C102.211 33.1236 101.981 33.622 101.664 34.0542C101.346 34.4865 100.932 34.8305 100.42 35.0863C99.9173 35.3333 99.3042 35.4568 98.5809 35.4568C97.8311 35.4568 97.2004 35.3245 96.6888 35.0598C96.1772 34.7952 95.7626 34.4468 95.4451 34.0145C95.1363 33.5735 94.9114 33.0707 94.7702 32.5062C94.6379 31.9328 94.5718 31.3462 94.5718 30.7464V25.9963H95.7626V30.7464C95.7626 31.2139 95.8067 31.6682 95.8949 32.1092C95.992 32.5414 96.1463 32.9252 96.358 33.2604C96.5785 33.5956 96.8652 33.869 97.2181 34.0807C97.5797 34.2836 98.0296 34.385 98.5677 34.385ZM104.918 25.9963L107.763 30.8919L110.634 25.9963H111.931L108.358 31.9637V35.3906H107.167V31.9372L103.608 25.9963H104.918Z" fill="black"/>
<path d="M122.802 27.5973H119.811V35.3906H117.985V27.5973H114.982V25.9963H122.802V27.5973ZM127.937 33.8425C128.369 33.8425 128.731 33.7543 129.022 33.5779C129.322 33.4015 129.56 33.1721 129.737 32.8899C129.922 32.6076 130.05 32.2856 130.12 31.924C130.2 31.5535 130.239 31.1742 130.239 30.7861V25.9963H132.052V30.7861C132.052 31.43 131.973 32.0342 131.814 32.5988C131.664 33.1633 131.421 33.6573 131.086 34.0807C130.76 34.5041 130.336 34.8393 129.816 35.0863C129.296 35.3333 128.674 35.4568 127.95 35.4568C127.201 35.4568 126.561 35.3289 126.032 35.0731C125.511 34.8084 125.088 34.4644 124.762 34.041C124.435 33.6088 124.197 33.1104 124.047 32.5459C123.906 31.9813 123.835 31.3947 123.835 30.7861V25.9963H125.661V30.7861C125.661 31.183 125.697 31.5667 125.767 31.9372C125.846 32.2989 125.974 32.6208 126.151 32.9031C126.336 33.1854 126.574 33.4147 126.865 33.5911C127.156 33.7587 127.514 33.8425 127.937 33.8425ZM139.489 28.4573C139.427 28.3956 139.312 28.3118 139.145 28.2059C138.986 28.1001 138.788 27.9986 138.549 27.9016C138.32 27.7957 138.069 27.7075 137.795 27.637C137.522 27.5664 137.244 27.5311 136.962 27.5311C136.459 27.5311 136.084 27.6237 135.837 27.809C135.59 27.9942 135.466 28.2544 135.466 28.5896C135.466 28.7837 135.511 28.9469 135.599 29.0792C135.696 29.2027 135.832 29.313 136.009 29.41C136.185 29.507 136.406 29.5952 136.67 29.6746C136.944 29.754 137.257 29.8378 137.61 29.926C138.069 30.0495 138.483 30.1818 138.854 30.323C139.233 30.4641 139.551 30.6405 139.806 30.8522C140.071 31.0639 140.274 31.3197 140.415 31.6196C140.556 31.9107 140.627 32.2724 140.627 32.7046C140.627 33.2074 140.53 33.6397 140.336 34.0013C140.15 34.3542 139.899 34.6408 139.581 34.8614C139.264 35.0819 138.893 35.2451 138.47 35.3509C138.047 35.448 137.606 35.4965 137.147 35.4965C136.441 35.4965 135.744 35.3906 135.056 35.1789C134.368 34.9672 133.751 34.6673 133.204 34.2792L134.011 32.7046C134.09 32.784 134.231 32.8899 134.434 33.0222C134.646 33.1457 134.893 33.2736 135.175 33.4059C135.458 33.5294 135.771 33.6352 136.115 33.7235C136.459 33.8117 136.812 33.8558 137.173 33.8558C138.179 33.8558 138.682 33.5338 138.682 32.8899C138.682 32.6782 138.624 32.5017 138.51 32.3606C138.395 32.2195 138.232 32.096 138.02 31.9901C137.808 31.8843 137.553 31.7872 137.253 31.699C136.953 31.6108 136.618 31.5182 136.247 31.4212C135.797 31.2977 135.405 31.1654 135.069 31.0242C134.743 30.8743 134.47 30.7023 134.249 30.5082C134.029 30.3141 133.861 30.0848 133.746 29.8202C133.64 29.5555 133.588 29.2424 133.588 28.8807C133.588 28.4044 133.676 27.981 133.852 27.6105C134.029 27.24 134.271 26.9313 134.58 26.6843C134.897 26.4373 135.264 26.2521 135.678 26.1286C136.093 25.9963 136.538 25.9301 137.015 25.9301C137.676 25.9301 138.285 26.036 138.84 26.2477C139.396 26.4505 139.881 26.6931 140.296 26.9754L139.489 28.4573ZM141.463 30.6273C141.463 30.0539 141.565 29.4894 141.768 28.9337C141.971 28.3691 142.262 27.8663 142.641 27.4253C143.029 26.9842 143.501 26.627 144.057 26.3535C144.612 26.0801 145.248 25.9433 145.962 25.9433C146.8 25.9433 147.523 26.133 148.132 26.5123C148.75 26.8916 149.204 27.3856 149.495 27.9942L148.092 28.9601C147.987 28.6955 147.85 28.475 147.682 28.2985C147.515 28.1133 147.329 27.9678 147.126 27.8619C146.932 27.756 146.73 27.6811 146.518 27.637C146.306 27.584 146.103 27.5576 145.909 27.5576C145.477 27.5576 145.098 27.6502 144.771 27.8354C144.445 28.0207 144.171 28.2633 143.951 28.5632C143.739 28.8543 143.576 29.1895 143.461 29.5688C143.355 29.9392 143.303 30.3097 143.303 30.6802C143.303 31.0948 143.364 31.4962 143.488 31.8843C143.62 32.2636 143.801 32.5988 144.03 32.8899C144.268 33.181 144.551 33.4147 144.877 33.5911C145.203 33.7676 145.561 33.8558 145.949 33.8558C146.152 33.8558 146.359 33.8293 146.571 33.7764C146.782 33.7235 146.985 33.6397 147.179 33.525C147.382 33.4103 147.568 33.2648 147.735 33.0883C147.903 32.9031 148.039 32.6826 148.145 32.4268L149.64 33.2868C149.499 33.6397 149.292 33.9528 149.019 34.2263C148.754 34.4909 148.45 34.7158 148.106 34.9011C147.762 35.0863 147.4 35.2274 147.021 35.3245C146.641 35.4215 146.266 35.47 145.896 35.47C145.243 35.47 144.643 35.3289 144.096 35.0466C143.558 34.7643 143.091 34.3983 142.694 33.9484C142.306 33.4897 142.001 32.9737 141.781 32.4003C141.569 31.8181 141.463 31.2271 141.463 30.6273ZM149.801 35.3906L153.506 25.9963H154.988L158.68 35.3906H156.748L155.888 33.0486H152.593L151.733 35.3906H149.801ZM154.247 27.9678L152.897 31.7652H155.557L154.247 27.9678ZM159.683 35.3906V25.9963H161.509V33.7896H166.298V35.3906H159.683ZM171.003 35.4568C170.341 35.4568 169.737 35.3245 169.19 35.0598C168.643 34.7864 168.171 34.4291 167.774 33.9881C167.386 33.5382 167.086 33.0266 166.875 32.4532C166.663 31.8799 166.557 31.2933 166.557 30.6934C166.557 30.0671 166.667 29.4673 166.888 28.894C167.117 28.3206 167.43 27.8134 167.827 27.3723C168.233 26.9313 168.709 26.5829 169.256 26.327C169.803 26.0624 170.399 25.9301 171.043 25.9301C171.704 25.9301 172.308 26.0712 172.855 26.3535C173.402 26.627 173.87 26.9886 174.258 27.4385C174.646 27.8884 174.946 28.4 175.158 28.9733C175.369 29.5467 175.475 30.1289 175.475 30.7199C175.475 31.3462 175.36 31.946 175.131 32.5194C174.911 33.0839 174.602 33.5867 174.205 34.0278C173.808 34.46 173.336 34.8084 172.789 35.0731C172.242 35.3289 171.647 35.4568 171.003 35.4568ZM168.396 30.6934C168.396 31.0992 168.454 31.4917 168.568 31.871C168.692 32.2503 168.864 32.5855 169.084 32.8766C169.314 33.1677 169.591 33.4015 169.918 33.5779C170.244 33.7543 170.615 33.8425 171.029 33.8425C171.453 33.8425 171.823 33.7543 172.141 33.5779C172.467 33.3927 172.741 33.1501 172.961 32.8502C173.182 32.5503 173.349 32.2151 173.464 31.8446C173.579 31.4653 173.636 31.0816 173.636 30.6934C173.636 30.2877 173.574 29.8951 173.451 29.5158C173.327 29.1365 173.151 28.8013 172.921 28.5102C172.701 28.2191 172.427 27.9898 172.101 27.8222C171.783 27.6458 171.422 27.5576 171.016 27.5576C170.593 27.5576 170.218 27.6502 169.891 27.8354C169.574 28.0119 169.3 28.25 169.071 28.5499C168.851 28.841 168.683 29.1762 168.568 29.5555C168.454 29.926 168.396 30.3053 168.396 30.6934ZM180.797 35.4568C180.136 35.4568 179.531 35.3245 178.985 35.0598C178.438 34.7864 177.966 34.4291 177.569 33.9881C177.181 33.5382 176.881 33.0266 176.669 32.4532C176.457 31.8799 176.351 31.2933 176.351 30.6934C176.351 30.0671 176.462 29.4673 176.682 28.894C176.912 28.3206 177.225 27.8134 177.622 27.3723C178.027 26.9313 178.504 26.5829 179.051 26.327C179.598 26.0624 180.193 25.9301 180.837 25.9301C181.499 25.9301 182.103 26.0712 182.65 26.3535C183.197 26.627 183.664 26.9886 184.052 27.4385C184.44 27.8884 184.74 28.4 184.952 28.9733C185.164 29.5467 185.269 30.1289 185.269 30.7199C185.269 31.3462 185.155 31.946 184.925 32.5194C184.705 33.0839 184.396 33.5867 183.999 34.0278C183.602 34.46 183.13 34.8084 182.583 35.0731C182.037 35.3289 181.441 35.4568 180.797 35.4568ZM178.191 30.6934C178.191 31.0992 178.248 31.4917 178.363 31.871C178.486 32.2503 178.658 32.5855 178.879 32.8766C179.108 33.1677 179.386 33.4015 179.712 33.5779C180.039 33.7543 180.409 33.8425 180.824 33.8425C181.247 33.8425 181.618 33.7543 181.935 33.5779C182.262 33.3927 182.535 33.1501 182.756 32.8502C182.976 32.5503 183.144 32.2151 183.258 31.8446C183.373 31.4653 183.43 31.0816 183.43 30.6934C183.43 30.2877 183.369 29.8951 183.245 29.5158C183.122 29.1365 182.945 28.8013 182.716 28.5102C182.495 28.2191 182.222 27.9898 181.895 27.8222C181.578 27.6458 181.216 27.5576 180.81 27.5576C180.387 27.5576 180.012 27.6502 179.686 27.8354C179.368 28.0119 179.095 28.25 178.865 28.5499C178.645 28.841 178.477 29.1762 178.363 29.5555C178.248 29.926 178.191 30.3053 178.191 30.6934ZM192.247 28.4573C192.185 28.3956 192.07 28.3118 191.903 28.2059C191.744 28.1001 191.546 27.9986 191.307 27.9016C191.078 27.7957 190.827 27.7075 190.553 27.637C190.28 27.5664 190.002 27.5311 189.72 27.5311C189.217 27.5311 188.842 27.6237 188.595 27.809C188.348 27.9942 188.224 28.2544 188.224 28.5896C188.224 28.7837 188.269 28.9469 188.357 29.0792C188.454 29.2027 188.591 29.313 188.767 29.41C188.943 29.507 189.164 29.5952 189.429 29.6746C189.702 29.754 190.015 29.8378 190.368 29.926C190.827 30.0495 191.241 30.1818 191.612 30.323C191.991 30.4641 192.309 30.6405 192.564 30.8522C192.829 31.0639 193.032 31.3197 193.173 31.6196C193.314 31.9107 193.385 32.2724 193.385 32.7046C193.385 33.2074 193.288 33.6397 193.094 34.0013C192.908 34.3542 192.657 34.6408 192.339 34.8614C192.022 35.0819 191.651 35.2451 191.228 35.3509C190.805 35.448 190.364 35.4965 189.905 35.4965C189.199 35.4965 188.502 35.3906 187.814 35.1789C187.126 34.9672 186.509 34.6673 185.962 34.2792L186.769 32.7046C186.848 32.784 186.99 32.8899 187.192 33.0222C187.404 33.1457 187.651 33.2736 187.933 33.4059C188.216 33.5294 188.529 33.6352 188.873 33.7235C189.217 33.8117 189.57 33.8558 189.931 33.8558C190.937 33.8558 191.44 33.5338 191.44 32.8899C191.44 32.6782 191.382 32.5017 191.268 32.3606C191.153 32.2195 190.99 32.096 190.778 31.9901C190.566 31.8843 190.311 31.7872 190.011 31.699C189.711 31.6108 189.376 31.5182 189.005 31.4212C188.555 31.2977 188.163 31.1654 187.828 31.0242C187.501 30.8743 187.228 30.7023 187.007 30.5082C186.787 30.3141 186.619 30.0848 186.504 29.8202C186.399 29.5555 186.346 29.2424 186.346 28.8807C186.346 28.4044 186.434 27.981 186.61 27.6105C186.787 27.24 187.029 26.9313 187.338 26.6843C187.656 26.4373 188.022 26.2521 188.436 26.1286C188.851 25.9963 189.296 25.9301 189.773 25.9301C190.434 25.9301 191.043 26.036 191.598 26.2477C192.154 26.4505 192.639 26.6931 193.054 26.9754L192.247 28.4573ZM193.644 35.3906L197.348 25.9963H198.83L202.522 35.3906H200.59L199.73 33.0486H196.435L195.575 35.3906H193.644ZM198.089 27.9678L196.74 31.7652H199.399L198.089 27.9678ZM214.176 25.9963V35.3906H212.364V31.3815H208.103V35.3906H206.277V25.9963H208.103V29.7937H212.364V25.9963H214.176ZM220.039 35.4568C219.378 35.4568 218.774 35.3245 218.227 35.0598C217.68 34.7864 217.208 34.4291 216.811 33.9881C216.423 33.5382 216.123 33.0266 215.911 32.4532C215.7 31.8799 215.594 31.2933 215.594 30.6934C215.594 30.0671 215.704 29.4673 215.925 28.894C216.154 28.3206 216.467 27.8134 216.864 27.3723C217.27 26.9313 217.746 26.5829 218.293 26.327C218.84 26.0624 219.435 25.9301 220.079 25.9301C220.741 25.9301 221.345 26.0712 221.892 26.3535C222.439 26.627 222.906 26.9886 223.294 27.4385C223.683 27.8884 223.982 28.4 224.194 28.9733C224.406 29.5467 224.512 30.1289 224.512 30.7199C224.512 31.3462 224.397 31.946 224.168 32.5194C223.947 33.0839 223.638 33.5867 223.242 34.0278C222.845 34.46 222.373 34.8084 221.826 35.0731C221.279 35.3289 220.683 35.4568 220.039 35.4568ZM217.433 30.6934C217.433 31.0992 217.49 31.4917 217.605 31.871C217.728 32.2503 217.9 32.5855 218.121 32.8766C218.35 33.1677 218.628 33.4015 218.955 33.5779C219.281 33.7543 219.651 33.8425 220.066 33.8425C220.489 33.8425 220.86 33.7543 221.177 33.5779C221.504 33.3927 221.777 33.1501 221.998 32.8502C222.218 32.5503 222.386 32.2151 222.501 31.8446C222.615 31.4653 222.673 31.0816 222.673 30.6934C222.673 30.2877 222.611 29.8951 222.487 29.5158C222.364 29.1365 222.187 28.8013 221.958 28.5102C221.738 28.2191 221.464 27.9898 221.138 27.8222C220.82 27.6458 220.458 27.5576 220.053 27.5576C219.629 27.5576 219.254 27.6502 218.928 27.8354C218.61 28.0119 218.337 28.25 218.108 28.5499C217.887 28.841 217.72 29.1762 217.605 29.5555C217.49 29.926 217.433 30.3053 217.433 30.6934ZM233.592 35.3906V29.1718L231.17 33.8028H230.178L227.757 29.1718V35.3906H225.931V25.9963H227.889L230.668 31.3418L233.473 25.9963H235.418V35.3906H233.592ZM243.902 33.7896V35.3906H237.379V25.9963H243.783V27.5973H239.205V29.8599H243.161V31.3418H239.205V33.7896H243.902ZM250.858 28.4573C250.797 28.3956 250.682 28.3118 250.514 28.2059C250.355 28.1001 250.157 27.9986 249.919 27.9016C249.689 27.7957 249.438 27.7075 249.165 27.637C248.891 27.5664 248.613 27.5311 248.331 27.5311C247.828 27.5311 247.453 27.6237 247.206 27.809C246.959 27.9942 246.836 28.2544 246.836 28.5896C246.836 28.7837 246.88 28.9469 246.968 29.0792C247.065 29.2027 247.202 29.313 247.378 29.41C247.555 29.507 247.775 29.5952 248.04 29.6746C248.313 29.754 248.627 29.8378 248.979 29.926C249.438 30.0495 249.853 30.1818 250.223 30.323C250.602 30.4641 250.92 30.6405 251.176 30.8522C251.44 31.0639 251.643 31.3197 251.784 31.6196C251.926 31.9107 251.996 32.2724 251.996 32.7046C251.996 33.2074 251.899 33.6397 251.705 34.0013C251.52 34.3542 251.268 34.6408 250.951 34.8614C250.633 35.0819 250.263 35.2451 249.839 35.3509C249.416 35.448 248.975 35.4965 248.516 35.4965C247.811 35.4965 247.114 35.3906 246.426 35.1789C245.738 34.9672 245.12 34.6673 244.573 34.2792L245.38 32.7046C245.46 32.784 245.601 32.8899 245.804 33.0222C246.016 33.1457 246.263 33.2736 246.545 33.4059C246.827 33.5294 247.14 33.6352 247.484 33.7235C247.828 33.8117 248.181 33.8558 248.543 33.8558C249.548 33.8558 250.051 33.5338 250.051 32.8899C250.051 32.6782 249.994 32.5017 249.879 32.3606C249.764 32.2195 249.601 32.096 249.39 31.9901C249.178 31.8843 248.922 31.7872 248.622 31.699C248.322 31.6108 247.987 31.5182 247.617 31.4212C247.167 31.2977 246.774 31.1654 246.439 31.0242C246.113 30.8743 245.839 30.7023 245.619 30.5082C245.398 30.3141 245.23 30.0848 245.116 29.8202C245.01 29.5555 244.957 29.2424 244.957 28.8807C244.957 28.4044 245.045 27.981 245.222 27.6105C245.398 27.24 245.641 26.9313 245.949 26.6843C246.267 26.4373 246.633 26.2521 247.048 26.1286C247.462 25.9963 247.908 25.9301 248.384 25.9301C249.046 25.9301 249.654 26.036 250.21 26.2477C250.766 26.4505 251.251 26.6931 251.665 26.9754L250.858 28.4573Z" fill="#25BAD3"/>
<path d="M102.104 46.7344V42.5244H105.178V43.1799H102.886V46.7344H102.104ZM102.82 45.1225V44.461H104.919V45.1225H102.82ZM109.664 46.7945C109.335 46.7945 109.032 46.7404 108.756 46.6321C108.479 46.5239 108.238 46.3735 108.034 46.1811C107.829 45.9846 107.671 45.756 107.559 45.4954C107.447 45.2308 107.39 44.9421 107.39 44.6294C107.39 44.3166 107.447 44.0299 107.559 43.7693C107.671 43.5047 107.829 43.2761 108.034 43.0837C108.238 42.8872 108.479 42.7349 108.756 42.6266C109.032 42.5183 109.333 42.4642 109.658 42.4642C109.987 42.4642 110.287 42.5183 110.56 42.6266C110.837 42.7349 111.077 42.8872 111.282 43.0837C111.486 43.2761 111.645 43.5047 111.757 43.7693C111.869 44.0299 111.925 44.3166 111.925 44.6294C111.925 44.9421 111.869 45.2308 111.757 45.4954C111.645 45.7601 111.486 45.9886 111.282 46.1811C111.077 46.3735 110.837 46.5239 110.56 46.6321C110.287 46.7404 109.989 46.7945 109.664 46.7945ZM109.658 46.1089C109.87 46.1089 110.067 46.0728 110.247 46.0006C110.428 45.9285 110.584 45.8262 110.716 45.6939C110.849 45.5576 110.951 45.4012 111.023 45.2248C111.099 45.0444 111.137 44.8459 111.137 44.6294C111.137 44.4128 111.099 44.2164 111.023 44.04C110.951 43.8595 110.849 43.7032 110.716 43.5708C110.584 43.4345 110.428 43.3303 110.247 43.2581C110.067 43.1859 109.87 43.1498 109.658 43.1498C109.445 43.1498 109.249 43.1859 109.068 43.2581C108.892 43.3303 108.736 43.4345 108.599 43.5708C108.467 43.7032 108.363 43.8595 108.287 44.04C108.214 44.2164 108.178 44.4128 108.178 44.6294C108.178 44.8419 108.214 45.0383 108.287 45.2188C108.363 45.3992 108.467 45.5576 108.599 45.6939C108.732 45.8262 108.888 45.9285 109.068 46.0006C109.249 46.0728 109.445 46.1089 109.658 46.1089ZM114.558 46.7344V42.5244H116.284C116.846 42.5244 117.285 42.6567 117.602 42.9213C117.922 43.1859 118.083 43.5528 118.083 44.0219C118.083 44.3307 118.01 44.5973 117.866 44.8218C117.722 45.0423 117.515 45.2128 117.247 45.333C116.982 45.4493 116.663 45.5075 116.29 45.5075H114.991L115.34 45.1526V46.7344H114.558ZM117.313 46.7344L116.248 45.2067H117.084L118.155 46.7344H117.313ZM115.34 45.2368L114.991 44.8639H116.254C116.599 44.8639 116.858 44.7897 117.03 44.6414C117.207 44.493 117.295 44.2865 117.295 44.0219C117.295 43.7533 117.207 43.5468 117.03 43.4024C116.858 43.2581 116.599 43.1859 116.254 43.1859H114.991L115.34 42.801V45.2368ZM126.177 46.7945C125.856 46.7945 125.557 46.7424 125.281 46.6381C125.008 46.5299 124.769 46.3795 124.565 46.1871C124.365 45.9906 124.208 45.7601 124.096 45.4954C123.984 45.2308 123.927 44.9421 123.927 44.6294C123.927 44.3166 123.984 44.0279 124.096 43.7633C124.208 43.4987 124.367 43.2701 124.571 43.0777C124.775 42.8812 125.014 42.7308 125.287 42.6266C125.559 42.5183 125.858 42.4642 126.183 42.4642C126.528 42.4642 126.842 42.5244 127.127 42.6446C127.412 42.7609 127.652 42.9353 127.849 43.1679L127.344 43.643C127.191 43.4786 127.021 43.3563 126.832 43.2761C126.644 43.1919 126.439 43.1498 126.219 43.1498C125.998 43.1498 125.796 43.1859 125.611 43.2581C125.431 43.3303 125.273 43.4325 125.136 43.5648C125.004 43.6971 124.9 43.8535 124.824 44.0339C124.751 44.2144 124.715 44.4128 124.715 44.6294C124.715 44.8459 124.751 45.0444 124.824 45.2248C124.9 45.4052 125.004 45.5616 125.136 45.6939C125.273 45.8262 125.431 45.9285 125.611 46.0006C125.796 46.0728 125.998 46.1089 126.219 46.1089C126.439 46.1089 126.644 46.0688 126.832 45.9886C127.021 45.9044 127.191 45.7781 127.344 45.6097L127.849 46.0908C127.652 46.3194 127.412 46.4938 127.127 46.6141C126.842 46.7344 126.526 46.7945 126.177 46.7945ZM129.666 46.7344L131.56 42.5244H132.33L134.231 46.7344H133.413L131.783 42.9393H132.096L130.472 46.7344H129.666ZM130.538 45.7601L130.748 45.1466H133.022L133.232 45.7601H130.538ZM137.876 46.7945C137.547 46.7945 137.232 46.7484 136.931 46.6562C136.631 46.56 136.392 46.4377 136.216 46.2893L136.486 45.6819C136.655 45.8142 136.863 45.9244 137.112 46.0127C137.36 46.1009 137.615 46.145 137.876 46.145C138.096 46.145 138.275 46.1209 138.411 46.0728C138.547 46.0247 138.647 45.9605 138.712 45.8803C138.776 45.7961 138.808 45.7019 138.808 45.5977C138.808 45.4694 138.762 45.3671 138.669 45.2909C138.577 45.2107 138.457 45.1486 138.309 45.1045C138.164 45.0564 138.002 45.0123 137.821 44.9722C137.645 44.9321 137.467 44.886 137.286 44.8338C137.11 44.7777 136.947 44.7075 136.799 44.6233C136.655 44.5351 136.536 44.4189 136.444 44.2745C136.352 44.1302 136.306 43.9457 136.306 43.7212C136.306 43.4927 136.366 43.2842 136.486 43.0957C136.611 42.9033 136.797 42.7509 137.046 42.6386C137.298 42.5223 137.617 42.4642 138.002 42.4642C138.254 42.4642 138.505 42.4963 138.754 42.5604C139.002 42.6246 139.219 42.7168 139.403 42.8371L139.157 43.4445C138.968 43.3323 138.774 43.2501 138.573 43.198C138.373 43.1418 138.18 43.1138 137.996 43.1138C137.779 43.1138 137.603 43.1398 137.467 43.1919C137.334 43.2441 137.236 43.3122 137.172 43.3964C137.112 43.4806 137.082 43.5769 137.082 43.6851C137.082 43.8134 137.126 43.9177 137.214 43.9979C137.306 44.074 137.424 44.1342 137.569 44.1783C137.717 44.2224 137.882 44.2665 138.062 44.3106C138.242 44.3507 138.421 44.3968 138.597 44.4489C138.778 44.5011 138.94 44.5692 139.084 44.6534C139.233 44.7376 139.351 44.8519 139.439 44.9962C139.532 45.1406 139.578 45.323 139.578 45.5435C139.578 45.7681 139.515 45.9766 139.391 46.169C139.271 46.3575 139.084 46.5098 138.832 46.6261C138.579 46.7384 138.26 46.7945 137.876 46.7945ZM145.116 46.7344V42.5244H145.898V46.7344H145.116ZM142.157 46.7344V42.5244H142.939V46.7344H142.157ZM142.873 44.9301V44.2625H145.176V44.9301H142.873ZM152.297 46.7344V42.5244H153.079V46.7344H152.297ZM156.022 46.7344V42.5244H156.665L159.306 45.7661H158.987V42.5244H159.763V46.7344H159.119L156.479 43.4927H156.798V46.7344H156.022ZM165.566 46.7344L167.461 42.5244H168.231L170.131 46.7344H169.313L167.683 42.9393H167.996L166.372 46.7344H165.566ZM166.438 45.7601L166.649 45.1466H168.922L169.133 45.7601H166.438ZM172.471 46.7344V42.5244H173.253V46.0728H175.454V46.7344H172.471ZM177.286 46.7344L179.18 42.5244H179.95L181.851 46.7344H181.033L179.403 42.9393H179.716L178.092 46.7344H177.286ZM178.158 45.7601L178.368 45.1466H180.642L180.852 45.7601H178.158ZM184.19 46.7344V42.5244H186.163C186.668 42.5244 187.053 42.6246 187.318 42.8251C187.583 43.0215 187.715 43.2862 187.715 43.619C187.715 43.8435 187.663 44.036 187.558 44.1963C187.454 44.3527 187.314 44.475 187.137 44.5632C186.965 44.6474 186.777 44.6895 186.572 44.6895L186.68 44.473C186.917 44.473 187.129 44.5171 187.318 44.6053C187.506 44.6895 187.655 44.8138 187.763 44.9782C187.875 45.1426 187.931 45.3471 187.931 45.5917C187.931 45.9525 187.793 46.2332 187.516 46.4337C187.24 46.6341 186.829 46.7344 186.283 46.7344H184.19ZM184.972 46.1209H186.235C186.528 46.1209 186.753 46.0728 186.909 45.9766C187.065 45.8803 187.143 45.726 187.143 45.5135C187.143 45.305 187.065 45.1526 186.909 45.0564C186.753 44.9561 186.528 44.906 186.235 44.906H184.912V44.2986H186.079C186.352 44.2986 186.56 44.2505 186.704 44.1542C186.853 44.058 186.927 43.9137 186.927 43.7212C186.927 43.5247 186.853 43.3784 186.704 43.2822C186.56 43.1859 186.352 43.1378 186.079 43.1378H184.972V46.1209ZM189.975 46.7344L191.869 42.5244H192.639L194.54 46.7344H193.722L192.092 42.9393H192.404L190.781 46.7344H189.975ZM190.847 45.7601L191.057 45.1466H193.331L193.541 45.7601H190.847ZM196.879 46.7344V42.5244H197.523L199.363 45.5977H199.026L200.837 42.5244H201.48L201.486 46.7344H200.746L200.74 43.6851H200.897L199.357 46.2532H199.008L197.445 43.6851H197.625V46.7344H196.879ZM203.832 46.7344L205.727 42.5244H206.497L208.397 46.7344H207.579L205.949 42.9393H206.262L204.638 46.7344H203.832ZM204.704 45.7601L204.915 45.1466H207.188L207.399 45.7601H204.704Z" fill="black"/>
<line x1="71.168" y1="44.1934" x2="99.1346" y2="44.1934" stroke="url(#paint0_linear_29994_5126)" stroke-width="0.300716"/>
<line y1="-0.150358" x2="27.9666" y2="-0.150358" transform="matrix(-1 -8.74227e-08 -8.74227e-08 1 239.57 44.3438)" stroke="url(#paint1_linear_29994_5126)" stroke-width="0.300716"/>
<path d="M24.461 -0.164062L22.7682 1.52874L22.7031 25.6186H26.4143V1.52874L24.461 -0.164062Z" fill="black"/>
<path d="M30.4509 25.6186V5.37009L34.0319 8.56036V25.6186H30.4509Z" fill="black"/>
<path d="M10.9172 17.542V12.2031L0.5 22.0995V55.2393H18.2744L15.0841 51.463H4.27624V23.597L10.9172 17.542Z" fill="black"/>
<path d="M38.1961 17.542V12.2031L48.6133 22.0995V55.2393H30.8389L34.0292 51.463H44.837V23.597L38.1961 17.542Z" fill="black"/>
<path d="M10.9182 21.5156L7.46745 24.8361L7.40234 48.0144H10.9182V21.5156Z" fill="black"/>
<path d="M37.8709 21.5781L41.3216 24.8986L41.3867 48.0769H37.8709V21.5781Z" fill="black"/>
<path d="M14.9531 25.3579V8.88562L18.6643 5.10938V25.3579H14.9531Z" fill="black"/>
<path d="M12.2686 30.3019L12.2266 27.4375H22.9693L23.0091 30.1442L18.7777 30.2063V46.5802L22.9693 50.7471V54.9139L15.7196 47.4926L15.7292 30.2047L12.2686 30.3019Z" fill="#25BAD3" stroke="#2BBCD4" stroke-width="0.390646" stroke-linecap="round"/>
<path d="M24.4609 54.7853V27.375H27.2606V35.7088H33.1203V27.375H36.1803V43.717L33.1203 47.949V38.5735H27.2606V51.9206L24.4609 54.7853Z" fill="#25BAD3" stroke="#2BBCD4" stroke-width="0.390646" stroke-linecap="round"/>
</g>
<defs>
<linearGradient id="paint0_linear_29994_5126" x1="71.168" y1="44.8438" x2="99.1346" y2="44.8437" gradientUnits="userSpaceOnUse">
<stop stop-color="white"/>
<stop offset="0.546187"/>
</linearGradient>
<linearGradient id="paint1_linear_29994_5126" x1="0" y1="0.5" x2="27.9666" y2="0.5" gradientUnits="userSpaceOnUse">
<stop stop-color="white"/>
<stop offset="0.546187"/>
</linearGradient>
<clipPath id="clip0_29994_5126">
<rect width="252" height="56" fill="white"/>
</clipPath>
</defs>
</svg>
