<svg width="252" height="56" viewBox="0 0 252 56" fill="none" xmlns="http://www.w3.org/2000/svg">
<g clip-path="url(#clip0_29994_5127)">
<path d="M64.493 26.2132H65.6177L66.8615 29.4814L68.1185 26.2132H69.2432L67.6157 30.3018L69.2299 34.1786L72.4055 26.1603H73.7022L69.7724 35.5547H68.7404L66.8747 31.1221L64.9958 35.5547H63.9638L60.0473 26.1603H61.3307L64.5195 34.1786L66.1205 30.3018L64.493 26.2132ZM81.3083 34.4962V35.5547H74.9307V26.1603H81.1892V27.2188H76.1216V30.2621H80.5277V31.2544H76.1216V34.4962H81.3083ZM93.5386 33.1333C93.5386 33.495 93.4636 33.8258 93.3136 34.1257C93.1725 34.4256 92.974 34.6814 92.7182 34.8931C92.4712 35.1048 92.1801 35.268 91.8449 35.3827C91.5186 35.4974 91.1657 35.5547 90.7864 35.5547H86.3274V26.1603H90.9981C91.3245 26.1603 91.62 26.2309 91.8846 26.372C92.1493 26.5132 92.3742 26.6984 92.5594 26.9277C92.7447 27.1483 92.8858 27.4041 92.9828 27.6952C93.0887 27.9774 93.1416 28.2641 93.1416 28.5552C93.1416 29.0227 93.0225 29.455 92.7844 29.8519C92.555 30.2489 92.2242 30.5444 91.792 30.7384C92.3301 30.8972 92.7535 31.1927 93.0622 31.6249C93.3798 32.0483 93.5386 32.5511 93.5386 33.1333ZM92.3345 32.9216C92.3345 32.7099 92.2948 32.507 92.2154 32.313C92.1449 32.1101 92.0434 31.9337 91.9111 31.7837C91.7876 31.6338 91.6376 31.5147 91.4612 31.4265C91.2848 31.3382 91.0907 31.2941 90.879 31.2941H87.5182V34.5226H90.7864C91.0069 34.5226 91.2098 34.4785 91.3951 34.3903C91.5803 34.3021 91.7435 34.1874 91.8846 34.0463C92.0258 33.8963 92.136 33.7243 92.2154 33.5303C92.2948 33.3362 92.3345 33.1333 92.3345 32.9216ZM87.5182 27.1924V30.3282H90.5086C90.7203 30.3282 90.9143 30.2885 91.0907 30.2092C91.2672 30.1209 91.4171 30.0063 91.5406 29.8651C91.6729 29.724 91.7744 29.5608 91.8449 29.3756C91.9243 29.1815 91.964 28.9786 91.964 28.7669C91.964 28.5464 91.9287 28.3391 91.8582 28.145C91.7876 27.951 91.6906 27.7834 91.5671 27.6422C91.4524 27.5011 91.3069 27.3908 91.1304 27.3115C90.9628 27.2321 90.782 27.1924 90.5879 27.1924H87.5182ZM99.0677 34.5491C99.6146 34.5491 100.069 34.4432 100.431 34.2315C100.792 34.0198 101.079 33.7464 101.291 33.4112C101.511 33.0672 101.665 32.679 101.754 32.2468C101.842 31.8058 101.886 31.3603 101.886 30.9104V26.1603H103.077V30.9104C103.077 31.5455 103.002 32.1498 102.852 32.7231C102.711 33.2877 102.481 33.7861 102.164 34.2183C101.846 34.6505 101.432 34.9946 100.92 35.2504C100.417 35.4974 99.8042 35.6208 99.0809 35.6208C98.3311 35.6208 97.7004 35.4885 97.1888 35.2239C96.6772 34.9593 96.2626 34.6108 95.9451 34.1786C95.6363 33.7376 95.4114 33.2348 95.2702 32.6702C95.1379 32.0969 95.0718 31.5103 95.0718 30.9104V26.1603H96.2626V30.9104C96.2626 31.3779 96.3067 31.8322 96.3949 32.2733C96.492 32.7055 96.6463 33.0892 96.858 33.4244C97.0785 33.7596 97.3652 34.0331 97.7181 34.2448C98.0797 34.4477 98.5296 34.5491 99.0677 34.5491ZM105.418 26.1603L108.263 31.056L111.134 26.1603H112.431L108.858 32.1277V35.5547H107.667V32.1013L104.108 26.1603H105.418Z" fill="white"/>
<path d="M123.302 27.7613H120.311V35.5547H118.485V27.7613H115.482V26.1603H123.302V27.7613ZM128.437 34.0066C128.869 34.0066 129.231 33.9184 129.522 33.742C129.822 33.5656 130.06 33.3362 130.237 33.0539C130.422 32.7717 130.55 32.4497 130.62 32.088C130.7 31.7176 130.739 31.3382 130.739 30.9501V26.1603H132.552V30.9501C132.552 31.5941 132.473 32.1983 132.314 32.7628C132.164 33.3274 131.921 33.8214 131.586 34.2448C131.26 34.6682 130.836 35.0034 130.316 35.2504C129.796 35.4974 129.174 35.6208 128.45 35.6208C127.701 35.6208 127.061 35.4929 126.532 35.2371C126.011 34.9725 125.588 34.6285 125.262 34.2051C124.935 33.7728 124.697 33.2745 124.547 32.7099C124.406 32.1454 124.335 31.5588 124.335 30.9501V26.1603H126.161V30.9501C126.161 31.3471 126.197 31.7308 126.267 32.1013C126.346 32.4629 126.474 32.7849 126.651 33.0672C126.836 33.3494 127.074 33.5788 127.365 33.7552C127.656 33.9228 128.014 34.0066 128.437 34.0066ZM139.989 28.6214C139.927 28.5596 139.812 28.4758 139.645 28.37C139.486 28.2641 139.288 28.1627 139.049 28.0657C138.82 27.9598 138.569 27.8716 138.295 27.801C138.022 27.7305 137.744 27.6952 137.462 27.6952C136.959 27.6952 136.584 27.7878 136.337 27.973C136.09 28.1583 135.966 28.4185 135.966 28.7537C135.966 28.9478 136.011 29.1109 136.099 29.2433C136.196 29.3668 136.332 29.477 136.509 29.574C136.685 29.6711 136.906 29.7593 137.17 29.8387C137.444 29.9181 137.757 30.0019 138.11 30.0901C138.569 30.2136 138.983 30.3459 139.354 30.487C139.733 30.6282 140.051 30.8046 140.306 31.0163C140.571 31.228 140.774 31.4838 140.915 31.7837C141.056 32.0748 141.127 32.4365 141.127 32.8687C141.127 33.3715 141.03 33.8037 140.836 34.1654C140.65 34.5182 140.399 34.8049 140.081 35.0254C139.764 35.246 139.393 35.4091 138.97 35.515C138.547 35.612 138.106 35.6605 137.647 35.6605C136.941 35.6605 136.244 35.5547 135.556 35.343C134.868 35.1313 134.251 34.8314 133.704 34.4432L134.511 32.8687C134.59 32.9481 134.731 33.0539 134.934 33.1862C135.146 33.3097 135.393 33.4376 135.675 33.57C135.958 33.6935 136.271 33.7993 136.615 33.8875C136.959 33.9757 137.312 34.0198 137.673 34.0198C138.679 34.0198 139.182 33.6979 139.182 33.0539C139.182 32.8422 139.124 32.6658 139.01 32.5247C138.895 32.3835 138.732 32.26 138.52 32.1542C138.308 32.0483 138.053 31.9513 137.753 31.8631C137.453 31.7749 137.118 31.6823 136.747 31.5852C136.297 31.4617 135.905 31.3294 135.569 31.1883C135.243 31.0383 134.97 30.8663 134.749 30.6723C134.529 30.4782 134.361 30.2489 134.246 29.9842C134.14 29.7196 134.088 29.4064 134.088 29.0448C134.088 28.5685 134.176 28.145 134.352 27.7746C134.529 27.4041 134.771 27.0953 135.08 26.8484C135.397 26.6014 135.764 26.4161 136.178 26.2926C136.593 26.1603 137.038 26.0942 137.515 26.0942C138.176 26.0942 138.785 26.2 139.34 26.4117C139.896 26.6146 140.381 26.8572 140.796 27.1395L139.989 28.6214ZM141.963 30.7913C141.963 30.218 142.065 29.6534 142.268 29.0977C142.471 28.5332 142.762 28.0304 143.141 27.5893C143.529 27.1483 144.001 26.791 144.557 26.5176C145.112 26.2441 145.748 26.1074 146.462 26.1074C147.3 26.1074 148.023 26.297 148.632 26.6763C149.25 27.0557 149.704 27.5496 149.995 28.1583L148.592 29.1242C148.487 28.8595 148.35 28.639 148.182 28.4626C148.015 28.2774 147.829 28.1318 147.626 28.026C147.432 27.9201 147.23 27.8451 147.018 27.801C146.806 27.7481 146.603 27.7216 146.409 27.7216C145.977 27.7216 145.598 27.8143 145.271 27.9995C144.945 28.1847 144.671 28.4273 144.451 28.7272C144.239 29.0183 144.076 29.3535 143.961 29.7328C143.855 30.1033 143.803 30.4738 143.803 30.8443C143.803 31.2589 143.864 31.6602 143.988 32.0483C144.12 32.4276 144.301 32.7628 144.53 33.0539C144.768 33.345 145.051 33.5788 145.377 33.7552C145.703 33.9316 146.061 34.0198 146.449 34.0198C146.652 34.0198 146.859 33.9934 147.071 33.9404C147.282 33.8875 147.485 33.8037 147.679 33.689C147.882 33.5744 148.068 33.4288 148.235 33.2524C148.403 33.0672 148.539 32.8466 148.645 32.5908L150.14 33.4509C149.999 33.8037 149.792 34.1169 149.519 34.3903C149.254 34.6549 148.95 34.8799 148.606 35.0651C148.262 35.2504 147.9 35.3915 147.521 35.4885C147.141 35.5856 146.766 35.6341 146.396 35.6341C145.743 35.6341 145.143 35.4929 144.596 35.2107C144.058 34.9284 143.591 34.5623 143.194 34.1125C142.806 33.6538 142.501 33.1377 142.281 32.5644C142.069 31.9822 141.963 31.3912 141.963 30.7913ZM150.301 35.5547L154.006 26.1603H155.488L159.18 35.5547H157.248L156.388 33.2127H153.093L152.233 35.5547H150.301ZM154.747 28.1318L153.397 31.9293H156.057L154.747 28.1318ZM160.183 35.5547V26.1603H162.009V33.9537H166.798V35.5547H160.183ZM171.503 35.6208C170.841 35.6208 170.237 35.4885 169.69 35.2239C169.143 34.9504 168.671 34.5932 168.274 34.1521C167.886 33.7023 167.586 33.1907 167.375 32.6173C167.163 32.0439 167.057 31.4573 167.057 30.8575C167.057 30.2312 167.167 29.6314 167.388 29.058C167.617 28.4847 167.93 27.9774 168.327 27.5364C168.733 27.0953 169.209 26.7469 169.756 26.4911C170.303 26.2265 170.899 26.0942 171.543 26.0942C172.204 26.0942 172.808 26.2353 173.355 26.5176C173.902 26.791 174.37 27.1527 174.758 27.6026C175.146 28.0524 175.446 28.564 175.658 29.1374C175.869 29.7108 175.975 30.293 175.975 30.884C175.975 31.5103 175.86 32.1101 175.631 32.6835C175.411 33.248 175.102 33.7508 174.705 34.1918C174.308 34.6241 173.836 34.9725 173.289 35.2371C172.742 35.4929 172.147 35.6208 171.503 35.6208ZM168.896 30.8575C168.896 31.2633 168.954 31.6558 169.068 32.0351C169.192 32.4144 169.364 32.7496 169.584 33.0407C169.814 33.3318 170.091 33.5656 170.418 33.742C170.744 33.9184 171.115 34.0066 171.529 34.0066C171.953 34.0066 172.323 33.9184 172.641 33.742C172.967 33.5567 173.241 33.3142 173.461 33.0142C173.682 32.7143 173.849 32.3791 173.964 32.0086C174.079 31.6293 174.136 31.2456 174.136 30.8575C174.136 30.4517 174.074 30.0592 173.951 29.6799C173.827 29.3006 173.651 28.9654 173.421 28.6743C173.201 28.3832 172.927 28.1539 172.601 27.9863C172.283 27.8098 171.922 27.7216 171.516 27.7216C171.093 27.7216 170.718 27.8143 170.391 27.9995C170.074 28.1759 169.8 28.4141 169.571 28.714C169.351 29.0051 169.183 29.3403 169.068 29.7196C168.954 30.0901 168.896 30.4694 168.896 30.8575ZM181.297 35.6208C180.636 35.6208 180.031 35.4885 179.485 35.2239C178.938 34.9504 178.466 34.5932 178.069 34.1521C177.681 33.7023 177.381 33.1907 177.169 32.6173C176.957 32.0439 176.851 31.4573 176.851 30.8575C176.851 30.2312 176.962 29.6314 177.182 29.058C177.412 28.4847 177.725 27.9774 178.122 27.5364C178.527 27.0953 179.004 26.7469 179.551 26.4911C180.098 26.2265 180.693 26.0942 181.337 26.0942C181.999 26.0942 182.603 26.2353 183.15 26.5176C183.697 26.791 184.164 27.1527 184.552 27.6026C184.94 28.0524 185.24 28.564 185.452 29.1374C185.664 29.7108 185.769 30.293 185.769 30.884C185.769 31.5103 185.655 32.1101 185.425 32.6835C185.205 33.248 184.896 33.7508 184.499 34.1918C184.102 34.6241 183.63 34.9725 183.083 35.2371C182.537 35.4929 181.941 35.6208 181.297 35.6208ZM178.691 30.8575C178.691 31.2633 178.748 31.6558 178.863 32.0351C178.986 32.4144 179.158 32.7496 179.379 33.0407C179.608 33.3318 179.886 33.5656 180.212 33.742C180.539 33.9184 180.909 34.0066 181.324 34.0066C181.747 34.0066 182.118 33.9184 182.435 33.742C182.762 33.5567 183.035 33.3142 183.256 33.0142C183.476 32.7143 183.644 32.3791 183.758 32.0086C183.873 31.6293 183.93 31.2456 183.93 30.8575C183.93 30.4517 183.869 30.0592 183.745 29.6799C183.622 29.3006 183.445 28.9654 183.216 28.6743C182.995 28.3832 182.722 28.1539 182.395 27.9863C182.078 27.8098 181.716 27.7216 181.31 27.7216C180.887 27.7216 180.512 27.8143 180.186 27.9995C179.868 28.1759 179.595 28.4141 179.365 28.714C179.145 29.0051 178.977 29.3403 178.863 29.7196C178.748 30.0901 178.691 30.4694 178.691 30.8575ZM192.747 28.6214C192.685 28.5596 192.57 28.4758 192.403 28.37C192.244 28.2641 192.046 28.1627 191.807 28.0657C191.578 27.9598 191.327 27.8716 191.053 27.801C190.78 27.7305 190.502 27.6952 190.22 27.6952C189.717 27.6952 189.342 27.7878 189.095 27.973C188.848 28.1583 188.724 28.4185 188.724 28.7537C188.724 28.9478 188.769 29.1109 188.857 29.2433C188.954 29.3668 189.091 29.477 189.267 29.574C189.443 29.6711 189.664 29.7593 189.929 29.8387C190.202 29.9181 190.515 30.0019 190.868 30.0901C191.327 30.2136 191.741 30.3459 192.112 30.487C192.491 30.6282 192.809 30.8046 193.064 31.0163C193.329 31.228 193.532 31.4838 193.673 31.7837C193.814 32.0748 193.885 32.4365 193.885 32.8687C193.885 33.3715 193.788 33.8037 193.594 34.1654C193.408 34.5182 193.157 34.8049 192.839 35.0254C192.522 35.246 192.151 35.4091 191.728 35.515C191.305 35.612 190.864 35.6605 190.405 35.6605C189.699 35.6605 189.002 35.5547 188.314 35.343C187.626 35.1313 187.009 34.8314 186.462 34.4432L187.269 32.8687C187.348 32.9481 187.49 33.0539 187.692 33.1862C187.904 33.3097 188.151 33.4376 188.433 33.57C188.716 33.6935 189.029 33.7993 189.373 33.8875C189.717 33.9757 190.07 34.0198 190.431 34.0198C191.437 34.0198 191.94 33.6979 191.94 33.0539C191.94 32.8422 191.882 32.6658 191.768 32.5247C191.653 32.3835 191.49 32.26 191.278 32.1542C191.066 32.0483 190.811 31.9513 190.511 31.8631C190.211 31.7749 189.876 31.6823 189.505 31.5852C189.055 31.4617 188.663 31.3294 188.328 31.1883C188.001 31.0383 187.728 30.8663 187.507 30.6723C187.287 30.4782 187.119 30.2489 187.004 29.9842C186.899 29.7196 186.846 29.4064 186.846 29.0448C186.846 28.5685 186.934 28.145 187.11 27.7746C187.287 27.4041 187.529 27.0953 187.838 26.8484C188.156 26.6014 188.522 26.4161 188.936 26.2926C189.351 26.1603 189.796 26.0942 190.273 26.0942C190.934 26.0942 191.543 26.2 192.098 26.4117C192.654 26.6146 193.139 26.8572 193.554 27.1395L192.747 28.6214ZM194.144 35.5547L197.848 26.1603H199.33L203.022 35.5547H201.09L200.23 33.2127H196.935L196.075 35.5547H194.144ZM198.589 28.1318L197.24 31.9293H199.899L198.589 28.1318ZM214.676 26.1603V35.5547H212.864V31.5455H208.603V35.5547H206.777V26.1603H208.603V29.9578H212.864V26.1603H214.676ZM220.539 35.6208C219.878 35.6208 219.274 35.4885 218.727 35.2239C218.18 34.9504 217.708 34.5932 217.311 34.1521C216.923 33.7023 216.623 33.1907 216.411 32.6173C216.2 32.0439 216.094 31.4573 216.094 30.8575C216.094 30.2312 216.204 29.6314 216.425 29.058C216.654 28.4847 216.967 27.9774 217.364 27.5364C217.77 27.0953 218.246 26.7469 218.793 26.4911C219.34 26.2265 219.935 26.0942 220.579 26.0942C221.241 26.0942 221.845 26.2353 222.392 26.5176C222.939 26.791 223.406 27.1527 223.794 27.6026C224.183 28.0524 224.482 28.564 224.694 29.1374C224.906 29.7108 225.012 30.293 225.012 30.884C225.012 31.5103 224.897 32.1101 224.668 32.6835C224.447 33.248 224.138 33.7508 223.742 34.1918C223.345 34.6241 222.873 34.9725 222.326 35.2371C221.779 35.4929 221.183 35.6208 220.539 35.6208ZM217.933 30.8575C217.933 31.2633 217.99 31.6558 218.105 32.0351C218.228 32.4144 218.4 32.7496 218.621 33.0407C218.85 33.3318 219.128 33.5656 219.455 33.742C219.781 33.9184 220.151 34.0066 220.566 34.0066C220.989 34.0066 221.36 33.9184 221.677 33.742C222.004 33.5567 222.277 33.3142 222.498 33.0142C222.718 32.7143 222.886 32.3791 223.001 32.0086C223.115 31.6293 223.173 31.2456 223.173 30.8575C223.173 30.4517 223.111 30.0592 222.987 29.6799C222.864 29.3006 222.687 28.9654 222.458 28.6743C222.238 28.3832 221.964 28.1539 221.638 27.9863C221.32 27.8098 220.958 27.7216 220.553 27.7216C220.129 27.7216 219.754 27.8143 219.428 27.9995C219.11 28.1759 218.837 28.4141 218.608 28.714C218.387 29.0051 218.22 29.3403 218.105 29.7196C217.99 30.0901 217.933 30.4694 217.933 30.8575ZM234.092 35.5547V29.3359L231.67 33.9669H230.678L228.257 29.3359V35.5547H226.431V26.1603H228.389L231.168 31.5058L233.973 26.1603H235.918V35.5547H234.092ZM244.402 33.9537V35.5547H237.879V26.1603H244.283V27.7613H239.705V30.0239H243.661V31.5058H239.705V33.9537H244.402ZM251.358 28.6214C251.297 28.5596 251.182 28.4758 251.014 28.37C250.855 28.2641 250.657 28.1627 250.419 28.0657C250.189 27.9598 249.938 27.8716 249.665 27.801C249.391 27.7305 249.113 27.6952 248.831 27.6952C248.328 27.6952 247.953 27.7878 247.706 27.973C247.459 28.1583 247.336 28.4185 247.336 28.7537C247.336 28.9478 247.38 29.1109 247.468 29.2433C247.565 29.3668 247.702 29.477 247.878 29.574C248.055 29.6711 248.275 29.7593 248.54 29.8387C248.813 29.9181 249.127 30.0019 249.479 30.0901C249.938 30.2136 250.353 30.3459 250.723 30.487C251.102 30.6282 251.42 30.8046 251.676 31.0163C251.94 31.228 252.143 31.4838 252.284 31.7837C252.426 32.0748 252.496 32.4365 252.496 32.8687C252.496 33.3715 252.399 33.8037 252.205 34.1654C252.02 34.5182 251.768 34.8049 251.451 35.0254C251.133 35.246 250.763 35.4091 250.339 35.515C249.916 35.612 249.475 35.6605 249.016 35.6605C248.311 35.6605 247.614 35.5547 246.926 35.343C246.238 35.1313 245.62 34.8314 245.073 34.4432L245.88 32.8687C245.96 32.9481 246.101 33.0539 246.304 33.1862C246.516 33.3097 246.763 33.4376 247.045 33.57C247.327 33.6935 247.64 33.7993 247.984 33.8875C248.328 33.9757 248.681 34.0198 249.043 34.0198C250.048 34.0198 250.551 33.6979 250.551 33.0539C250.551 32.8422 250.494 32.6658 250.379 32.5247C250.264 32.3835 250.101 32.26 249.89 32.1542C249.678 32.0483 249.422 31.9513 249.122 31.8631C248.822 31.7749 248.487 31.6823 248.117 31.5852C247.667 31.4617 247.274 31.3294 246.939 31.1883C246.613 31.0383 246.339 30.8663 246.119 30.6723C245.898 30.4782 245.73 30.2489 245.616 29.9842C245.51 29.7196 245.457 29.4064 245.457 29.0448C245.457 28.5685 245.545 28.145 245.722 27.7746C245.898 27.4041 246.141 27.0953 246.449 26.8484C246.767 26.6014 247.133 26.4161 247.548 26.2926C247.962 26.1603 248.408 26.0942 248.884 26.0942C249.546 26.0942 250.154 26.2 250.71 26.4117C251.266 26.6146 251.751 26.8572 252.165 27.1395L251.358 28.6214Z" fill="#25BAD3"/>
<path d="M102.604 46.8984V42.6884H105.678V43.344H103.386V46.8984H102.604ZM103.32 45.2866V44.625H105.419V45.2866H103.32ZM110.164 46.9586C109.835 46.9586 109.532 46.9045 109.256 46.7962C108.979 46.6879 108.738 46.5376 108.534 46.3451C108.329 46.1487 108.171 45.9201 108.059 45.6595C107.947 45.3949 107.89 45.1062 107.89 44.7934C107.89 44.4807 107.947 44.194 108.059 43.9334C108.171 43.6687 108.329 43.4402 108.534 43.2477C108.738 43.0513 108.979 42.8989 109.256 42.7907C109.532 42.6824 109.833 42.6283 110.158 42.6283C110.487 42.6283 110.787 42.6824 111.06 42.7907C111.337 42.8989 111.577 43.0513 111.782 43.2477C111.986 43.4402 112.145 43.6687 112.257 43.9334C112.369 44.194 112.425 44.4807 112.425 44.7934C112.425 45.1062 112.369 45.3949 112.257 45.6595C112.145 45.9241 111.986 46.1527 111.782 46.3451C111.577 46.5376 111.337 46.6879 111.06 46.7962C110.787 46.9045 110.489 46.9586 110.164 46.9586ZM110.158 46.2729C110.37 46.2729 110.567 46.2369 110.747 46.1647C110.928 46.0925 111.084 45.9903 111.216 45.858C111.349 45.7216 111.451 45.5653 111.523 45.3888C111.599 45.2084 111.637 45.0099 111.637 44.7934C111.637 44.5769 111.599 44.3804 111.523 44.204C111.451 44.0236 111.349 43.8672 111.216 43.7349C111.084 43.5986 110.928 43.4943 110.747 43.4222C110.567 43.35 110.37 43.3139 110.158 43.3139C109.945 43.3139 109.749 43.35 109.568 43.4222C109.392 43.4943 109.236 43.5986 109.099 43.7349C108.967 43.8672 108.863 44.0236 108.787 44.204C108.714 44.3804 108.678 44.5769 108.678 44.7934C108.678 45.0059 108.714 45.2024 108.787 45.3828C108.863 45.5633 108.967 45.7216 109.099 45.858C109.232 45.9903 109.388 46.0925 109.568 46.1647C109.749 46.2369 109.945 46.2729 110.158 46.2729ZM115.058 46.8984V42.6884H116.784C117.346 42.6884 117.785 42.8207 118.102 43.0854C118.422 43.35 118.583 43.7169 118.583 44.186C118.583 44.4947 118.51 44.7613 118.366 44.9859C118.222 45.2064 118.015 45.3768 117.747 45.4971C117.482 45.6134 117.163 45.6715 116.79 45.6715H115.491L115.84 45.3167V46.8984H115.058ZM117.813 46.8984L116.748 45.3708H117.584L118.655 46.8984H117.813ZM115.84 45.4009L115.491 45.028H116.754C117.099 45.028 117.358 44.9538 117.53 44.8055C117.707 44.6571 117.795 44.4506 117.795 44.186C117.795 43.9173 117.707 43.7108 117.53 43.5665C117.358 43.4222 117.099 43.35 116.754 43.35H115.491L115.84 42.9651V45.4009ZM126.677 46.9586C126.356 46.9586 126.057 46.9065 125.781 46.8022C125.508 46.694 125.269 46.5436 125.065 46.3511C124.865 46.1547 124.708 45.9241 124.596 45.6595C124.484 45.3949 124.427 45.1062 124.427 44.7934C124.427 44.4807 124.484 44.192 124.596 43.9274C124.708 43.6627 124.867 43.4342 125.071 43.2417C125.275 43.0453 125.514 42.8949 125.787 42.7907C126.059 42.6824 126.358 42.6283 126.683 42.6283C127.028 42.6283 127.342 42.6884 127.627 42.8087C127.912 42.925 128.152 43.0994 128.349 43.3319L127.844 43.8071C127.691 43.6427 127.521 43.5204 127.332 43.4402C127.144 43.356 126.939 43.3139 126.719 43.3139C126.498 43.3139 126.296 43.35 126.111 43.4222C125.931 43.4943 125.773 43.5966 125.636 43.7289C125.504 43.8612 125.4 44.0176 125.324 44.198C125.251 44.3784 125.215 44.5769 125.215 44.7934C125.215 45.0099 125.251 45.2084 125.324 45.3888C125.4 45.5693 125.504 45.7256 125.636 45.858C125.773 45.9903 125.931 46.0925 126.111 46.1647C126.296 46.2369 126.498 46.2729 126.719 46.2729C126.939 46.2729 127.144 46.2329 127.332 46.1527C127.521 46.0685 127.691 45.9422 127.844 45.7738L128.349 46.2549C128.152 46.4834 127.912 46.6579 127.627 46.7782C127.342 46.8984 127.026 46.9586 126.677 46.9586ZM130.166 46.8984L132.06 42.6884H132.83L134.731 46.8984H133.913L132.283 43.1034H132.596L130.972 46.8984H130.166ZM131.038 45.9241L131.248 45.3107H133.522L133.732 45.9241H131.038ZM138.376 46.9586C138.047 46.9586 137.732 46.9125 137.431 46.8203C137.131 46.724 136.892 46.6017 136.716 46.4534L136.986 45.8459C137.155 45.9782 137.363 46.0885 137.612 46.1767C137.86 46.2649 138.115 46.309 138.376 46.309C138.596 46.309 138.775 46.285 138.911 46.2369C139.047 46.1887 139.147 46.1246 139.212 46.0444C139.276 45.9602 139.308 45.866 139.308 45.7617C139.308 45.6334 139.262 45.5312 139.169 45.455C139.077 45.3748 138.957 45.3127 138.809 45.2686C138.664 45.2204 138.502 45.1763 138.321 45.1362C138.145 45.0961 137.967 45.05 137.786 44.9979C137.61 44.9418 137.447 44.8716 137.299 44.7874C137.155 44.6992 137.036 44.5829 136.944 44.4386C136.852 44.2942 136.806 44.1098 136.806 43.8853C136.806 43.6567 136.866 43.4482 136.986 43.2598C137.111 43.0673 137.297 42.915 137.546 42.8027C137.798 42.6864 138.117 42.6283 138.502 42.6283C138.754 42.6283 139.005 42.6603 139.254 42.7245C139.502 42.7887 139.719 42.8809 139.903 43.0012L139.657 43.6086C139.468 43.4963 139.274 43.4141 139.073 43.362C138.873 43.3059 138.68 43.2778 138.496 43.2778C138.279 43.2778 138.103 43.3039 137.967 43.356C137.834 43.4081 137.736 43.4763 137.672 43.5605C137.612 43.6447 137.582 43.7409 137.582 43.8492C137.582 43.9775 137.626 44.0817 137.714 44.1619C137.806 44.2381 137.924 44.2982 138.069 44.3424C138.217 44.3865 138.382 44.4306 138.562 44.4747C138.742 44.5148 138.921 44.5609 139.097 44.613C139.278 44.6651 139.44 44.7333 139.584 44.8175C139.733 44.9017 139.851 45.016 139.939 45.1603C140.032 45.3046 140.078 45.4871 140.078 45.7076C140.078 45.9321 140.015 46.1406 139.891 46.3331C139.771 46.5215 139.584 46.6739 139.332 46.7902C139.079 46.9024 138.76 46.9586 138.376 46.9586ZM145.616 46.8984V42.6884H146.398V46.8984H145.616ZM142.657 46.8984V42.6884H143.439V46.8984H142.657ZM143.373 45.0941V44.4266H145.676V45.0941H143.373ZM152.797 46.8984V42.6884H153.579V46.8984H152.797ZM156.522 46.8984V42.6884H157.165L159.806 45.9301H159.487V42.6884H160.263V46.8984H159.619L156.979 43.6567H157.298V46.8984H156.522ZM166.066 46.8984L167.961 42.6884H168.731L170.631 46.8984H169.813L168.183 43.1034H168.496L166.872 46.8984H166.066ZM166.938 45.9241L167.149 45.3107H169.422L169.633 45.9241H166.938ZM172.971 46.8984V42.6884H173.753V46.2369H175.954V46.8984H172.971ZM177.786 46.8984L179.68 42.6884H180.45L182.351 46.8984H181.533L179.903 43.1034H180.216L178.592 46.8984H177.786ZM178.658 45.9241L178.868 45.3107H181.142L181.352 45.9241H178.658ZM184.69 46.8984V42.6884H186.663C187.168 42.6884 187.553 42.7887 187.818 42.9891C188.083 43.1856 188.215 43.4502 188.215 43.783C188.215 44.0076 188.163 44.2 188.058 44.3604C187.954 44.5168 187.814 44.6391 187.637 44.7273C187.465 44.8115 187.277 44.8536 187.072 44.8536L187.18 44.6371C187.417 44.6371 187.629 44.6812 187.818 44.7694C188.006 44.8536 188.155 44.9779 188.263 45.1423C188.375 45.3066 188.431 45.5111 188.431 45.7557C188.431 46.1166 188.293 46.3972 188.016 46.5977C187.74 46.7982 187.329 46.8984 186.783 46.8984H184.69ZM185.472 46.285H186.735C187.028 46.285 187.253 46.2369 187.409 46.1406C187.565 46.0444 187.643 45.89 187.643 45.6775C187.643 45.469 187.565 45.3167 187.409 45.2204C187.253 45.1202 187.028 45.0701 186.735 45.0701H185.412V44.4626H186.579C186.852 44.4626 187.06 44.4145 187.204 44.3183C187.353 44.2221 187.427 44.0777 187.427 43.8853C187.427 43.6888 187.353 43.5424 187.204 43.4462C187.06 43.35 186.852 43.3019 186.579 43.3019H185.472V46.285ZM190.475 46.8984L192.369 42.6884H193.139L195.04 46.8984H194.222L192.592 43.1034H192.904L191.281 46.8984H190.475ZM191.347 45.9241L191.557 45.3107H193.831L194.041 45.9241H191.347ZM197.379 46.8984V42.6884H198.023L199.863 45.7617H199.526L201.337 42.6884H201.98L201.986 46.8984H201.246L201.24 43.8492H201.397L199.857 46.4173H199.508L197.945 43.8492H198.125V46.8984H197.379ZM204.332 46.8984L206.227 42.6884H206.997L208.897 46.8984H208.079L206.449 43.1034H206.762L205.138 46.8984H204.332ZM205.204 45.9241L205.415 45.3107H207.688L207.899 45.9241H205.204Z" fill="white"/>
<line x1="72" y1="44.8496" x2="99.9666" y2="44.8496" stroke="url(#paint0_linear_29994_5127)" stroke-width="0.300716"/>
<line y1="-0.150358" x2="27.9666" y2="-0.150358" transform="matrix(-1 -8.74227e-08 -8.74227e-08 1 240.07 44.5078)" stroke="url(#paint1_linear_29994_5127)" stroke-width="0.300716"/>
<path d="M24.961 0L23.2682 1.6928L23.2031 25.7826H26.9143V1.6928L24.961 0Z" fill="white"/>
<path d="M30.9509 25.7826V5.53415L34.5319 8.72443V25.7826H30.9509Z" fill="white"/>
<path d="M11.4172 17.706V12.3672L1 22.2636V55.4033H18.7744L15.5841 51.6271H4.77624V23.761L11.4172 17.706Z" fill="white"/>
<path d="M38.6961 17.706V12.3672L49.1133 22.2636V55.4033H31.3389L34.5292 51.6271H45.337V23.761L38.6961 17.706Z" fill="white"/>
<path d="M11.4182 21.6797L7.96745 25.0002L7.90234 48.1785H11.4182V21.6797Z" fill="white"/>
<path d="M38.3709 21.7422L41.8216 25.0627L41.8867 48.241H38.3709V21.7422Z" fill="white"/>
<path d="M15.4531 25.5219V9.04968L19.1643 5.27344V25.5219H15.4531Z" fill="white"/>
<path d="M12.7686 30.466L12.7266 27.6016H23.4693L23.5091 30.3082L19.2777 30.3704V46.7442L23.4693 50.9111V55.078L16.2196 47.6566L16.2292 30.3687L12.7686 30.466Z" fill="#25BAD3" stroke="#2BBCD4" stroke-width="0.390646" stroke-linecap="round"/>
<path d="M24.9609 54.9494V27.5391H27.7606V35.8728H33.6203V27.5391H36.6803V43.8811L33.6203 48.1131V38.7376H27.7606V52.0846L24.9609 54.9494Z" fill="#25BAD3" stroke="#2BBCD4" stroke-width="0.390646" stroke-linecap="round"/>
</g>
<defs>
<linearGradient id="paint0_linear_29994_5127" x1="72" y1="45.5" x2="99.9666" y2="45.5" gradientUnits="userSpaceOnUse">
<stop offset="0.453813" stop-color="#1A2332"/>
<stop offset="1" stop-color="white"/>
</linearGradient>
<linearGradient id="paint1_linear_29994_5127" x1="0" y1="0.5" x2="27.9666" y2="0.5" gradientUnits="userSpaceOnUse">
<stop offset="0.453813" stop-color="#1A2332"/>
<stop offset="1" stop-color="white"/>
</linearGradient>
<clipPath id="clip0_29994_5127">
<rect width="252" height="56" fill="white"/>
</clipPath>
</defs>
</svg>
